PathFileType	4	(X/Y/Z)	Patient4_TMGait_0pt2_01_left_16.trc.trc
DataRate	CameraRate	NumFrames	NumMarkers	Units	OrigDataRate	OrigDataStartFrame	OrigNumFrames
42.042042042042	42.042042042042	4	33	mm	42.042042042042	124	       141
Frame#	Time	Sacral			L.Shoulder			Chest			R.Shoulder			Neck			R.ASIS			L.ASIS			R.Thigh.Superior			R.Thigh.Lateral			R.Thigh.Inferior			R.Patella			L.Thigh.Superior			L.Thigh.Lateral			L.Thigh.Inferior			L.Patella			L.Shank.Superior			L.Shank.Lateral			L.Shank.Inferior			R.Shank.Superior			R.Shank.Lateral			R.Shank.Inferior			R.Heel			R.Midfoot.Superior			R.Midfoot.Lateral			R.Toe			L.Heel			L.Midfoot.Lateral			L.Midfoot.Superior			L.Toe			L.Elbow			L.Wrist			R.Elbow			R.Wrist			
		X1	Y1	Z1	X2	Y2	Z2	X3	Y3	Z3	X4	Y4	Z4	X5	Y5	Z5	X6	Y6	Z6	X7	Y7	Z7	X8	Y8	Z8	X9	Y9	Z9	X10	Y10	Z10	X11	Y11	Z11	X12	Y12	Z12	X13	Y13	Z13	X14	Y14	Z14	X15	Y15	Z15	X16	Y16	Z16	X17	Y17	Z17	X18	Y18	Z18	X19	Y19	Z19	X20	Y20	Z20	X21	Y21	Z21	X22	Y22	Z22	X23	Y23	Z23	X24	Y24	Z24	X25	Y25	Z25	X26	Y26	Z26	X27	Y27	Z27	X28	Y28	Z28	X29	Y29	Z29	X30	Y30	Z30	X31	Y31	Z31	X32	Y32	Z32	X33	Y33	Z33	

124	39.535642857143	686.258039185089	999.327621919304	601.003122532528	820.410185933870	1422.426630224297	383.603783469313	955.404734810167	1356.034254289466	520.359329552855	911.499460734567	1431.281388768349	706.217492491719	832.844305600890	1485.913259284015	538.758909757856	930.809670881184	930.076075501950	673.208419298937	868.805718475396	955.108267227851	405.897774850952	941.295304805773	721.718917257333	627.991378330612	855.991334397564	613.788146368823	692.687144885943	911.809999509528	560.917556419804	599.427487319020	899.635533901589	469.768848031043	600.662903152788	940.425604211447	760.336031956498	423.701927120205	872.578740250070	637.775759572019	348.026156744116	975.817279668547	574.803672620118	400.568469775728	990.627591573579	509.237241172459	396.319685290260	977.323902616171	438.536619288977	379.684604218962	909.635041650228	313.409925228974	320.020797651334	995.549868983127	209.646939685525	368.070294257801	855.128418578120	385.902839591010	606.153318002195	773.141644449147	290.423172176078	669.916796795039	789.440684957508	196.210387165536	596.584355033654	629.855720582563	43.712984374539	568.353019385515	803.618679576388	95.205560208195	599.184614538580	715.300586140161	36.834620540778	640.270139741344	923.380455815421	40.775549192825	623.231086201718	902.507619243518	38.344022131830	392.339956870400	981.000341776797	39.506973246121	316.460097314064	1056.787021641462	109.095476178050	344.184881567075	1188.496210269200	69.138019606585	323.894100805988	685.147202820988	1092.945444576778	311.045663949197	646.662117153710	836.715131337600	349.759531171319	1110.679053416376	1159.530962536149	815.806070573253	1357.490553255196	1209.237888968700	764.435341416862	
125	39.559428571429	687.380291417866	998.909720988501	597.844525864327	821.281994716621	1421.367070325637	379.398433201102	956.190208671425	1355.558975355899	516.641309744970	911.730545350074	1431.324894778045	702.117866829915	833.190463740910	1485.433838265569	534.409090177049	931.680955698886	929.811849053596	671.048912660636	870.381272338692	954.341308283064	403.536422726570	940.833470490639	720.848608193314	626.487796835389	854.046257700473	613.730712907340	691.110365527681	909.589387369274	560.054151050765	598.385886151500	896.410979595775	469.152163801991	599.668692841611	941.923015553642	758.997238333783	421.983344100688	873.164020130760	636.434641447806	346.980563552631	975.964776550574	573.265241706608	399.845338985106	989.891738899941	507.406818126491	396.030920175493	976.431723987390	436.597794288182	379.518274544788	907.870391485826	312.009771163471	320.021803917192	992.350120509163	207.615225639250	368.868675246905	851.617939408019	385.516464164075	605.288938840863	769.154731481827	290.612129471566	669.297761623788	785.153220069033	196.065659803277	596.222905238853	625.152765944319	43.776797156988	568.293834453095	798.759589169811	95.030576672154	598.858604767222	710.574474212364	36.836977691262	640.195288748165	918.650048100087	40.716008620347	623.274825180313	896.970317186777	38.156377379058	393.208026759314	975.605816237163	38.509271088507	317.384323284615	1052.487098742811	106.521286118106	345.777865244122	1183.628659003849	64.447684139127	325.496172284132	689.174870003156	1090.364912157262	306.437120629663	652.973366407740	833.711418572775	344.137157667764	1111.450500127787	1159.869398212454	811.093090704959	1357.777869146041	1209.843555742622	757.883348936799	
126	39.583214285714	688.707829038006	998.679559778701	594.367434611183	822.531351081008	1420.461653586174	374.990665125910	957.285154563540	1355.219869459435	512.770749367102	912.220421290283	1431.530880898076	697.853066473611	833.831582162223	1485.095867097457	529.863794575723	932.705241280023	929.638249339900	668.673471158242	872.280523373255	953.812283585024	400.935808180151	940.428022781706	720.060701876619	624.798563888943	852.131508319638	613.814575524881	689.360831916270	907.398330524876	559.293460966435	597.201752445902	893.240866603904	468.661854249072	598.566224804625	943.862395889031	758.042549381712	420.066046838284	874.499311963701	635.408693815248	345.578592176913	976.802290801977	572.007267956235	398.897462658860	990.074081584410	505.862655394221	395.509259623339	976.263584293284	434.914225956972	379.172795885240	906.753953069610	310.950687341593	319.627157349892	989.472703708994	205.742319788027	369.390221729159	848.147760049947	385.267578115088	604.337442504122	765.195707370371	290.975945662913	668.639969770670	780.923104880041	196.053488371721	595.843035174567	620.492374168511	43.983571187745	568.236484605452	793.948216386568	94.859619031629	598.504040696204	705.889741266881	36.894057913266	640.105832649228	913.951486821881	40.605451955143	623.319055837302	891.490367522270	38.068808916683	393.731210881115	970.253443532322	37.633273995195	317.946095519546	1048.233588262662	104.120917403148	346.992693132040	1178.844480377992	59.977695288270	326.677833852855	693.369530745865	1088.169094138918	301.273182700762	659.391125364434	831.104200462954	337.732216247354	1112.127755783055	1160.145007291940	806.525657595517	1358.175362178652	1209.916129384087	751.719894972583	
127	39.607000000000	690.183294090424	998.678158215937	590.542075916978	824.154674474889	1419.773731509733	370.427560302795	958.685558243161	1355.037079334416	508.771472494998	912.990179396657	1431.887628339488	693.459915223173	834.787624653572	1484.929433765193	525.181213592812	933.836301943601	929.574219159056	666.030901728400	874.446820329396	953.556228586626	398.049878831546	940.022008393900	719.387226481137	622.903951615292	850.208200994995	614.076659614379	687.437319679306	905.206095635780	558.669886344802	595.876641475028	890.105336187886	468.326682532464	597.373757904582	946.189401767314	757.533334507667	417.950614582623	876.569665754072	634.724479913431	343.831256941443	978.330665986936	571.086139997730	397.727798490155	991.153586882331	504.638700976945	394.785300260737	976.818558380541	433.521347056995	378.678649774658	906.334778932413	310.260906831510	318.880135370852	986.964105927656	204.104498249874	369.689592604356	844.706675876273	385.188902412324	603.320013940984	761.239290591894	291.550275353030	667.945866769495	776.747392914964	196.205765182148	595.459419348880	615.870078610751	44.380752806583	568.184775070946	789.213730752345	94.733926706880	598.176806233155	701.240250074050	37.033555176756	640.006519216600	909.274847012682	40.437847679002	623.364605033795	886.219201576944	38.081396436260	393.967220496393	965.086670786273	36.940613854807	318.209318887630	1044.085571788145	102.042203723090	347.861255125653	1174.229888512346	56.002340891081	327.470573241738	697.678636157317	1086.446339136441	295.629380060154	665.785782449923	828.986705525644	330.640000844676	1112.843307122235	1160.439441620565	802.087939081295	1358.793738382762	1209.679509302750	745.985849321742	
